<svg width="134" height="18" viewBox="0 0 134 18" fill="none" xmlns="http://www.w3.org/2000/svg">
<path d="M8.68152 3.54008C8.91169 3.67298 9.15372 3.74418 9.40287 3.7513H9.44084C9.67576 3.7513 9.90118 3.69434 10.11 3.57805C10.3283 3.4499 10.5086 3.27191 10.651 3.03934C10.8313 2.71184 10.9239 2.36534 10.9191 2.00462C10.9191 1.64626 10.8242 1.30216 10.6463 0.972282C10.4683 0.642407 10.2286 0.390844 9.93914 0.219974C9.56186 -0.00785367 9.16796 -0.0576895 8.76932 0.065717C8.37542 0.19387 8.07407 0.466789 7.87949 0.882099C7.66831 1.34487 7.64458 1.84325 7.80356 2.36772C7.96491 2.8922 8.25915 3.28615 8.67915 3.53771M9.7683 0.578329C9.96287 0.734961 10.1432 0.948549 10.3069 1.21672C10.4683 1.48252 10.5774 1.75781 10.6273 2.0331C10.6937 2.40332 10.6581 2.71421 10.5229 2.96339C10.4185 3.1485 10.2785 3.29327 10.11 3.40244C9.73982 3.63501 9.32932 3.56144 8.85474 3.1841C8.66017 3.03221 8.47983 2.82338 8.32085 2.55758C8.16186 2.29178 8.05271 2.01649 7.99576 1.7412C7.93407 1.41844 7.94593 1.15264 8.02661 0.946173C8.07169 0.839379 8.12864 0.739706 8.19746 0.651898C8.2639 0.56409 8.34458 0.483401 8.43237 0.414578C8.52017 0.345755 8.61271 0.293544 8.71237 0.257946C8.80254 0.224721 8.89033 0.210479 8.97576 0.210479C9.06118 0.210479 9.1466 0.227094 9.22728 0.257946C9.39813 0.324395 9.58084 0.435937 9.7683 0.585449" fill="white"/>
<path d="M11.3961 17.5487C10.7127 17.4633 10.1172 17.188 9.60461 16.7371C9.64495 16.6967 9.69241 16.6659 9.73274 16.6231C10.3521 16.0061 10.651 15.3345 10.6297 14.6059C10.6297 14.2855 10.5799 13.9889 10.4849 13.716C10.4541 13.6305 10.409 13.5498 10.3687 13.4668C10.8978 13.1179 11.567 12.7904 12.3904 12.4843C12.5826 12.4155 12.9456 12.292 13.4795 12.1069C14.0134 11.9242 14.4809 11.7652 14.8866 11.6299C15.2924 11.4947 15.767 11.3001 16.3103 11.0485C16.8537 10.7993 17.3022 10.5477 17.6534 10.2962C18.0069 10.0446 18.3059 9.73137 18.5503 9.3564C18.7947 8.97906 18.9181 8.58748 18.9181 8.17692C18.9395 7.55989 18.7473 6.97371 18.3415 6.41363C17.9358 5.85593 17.4564 5.42638 16.9012 5.12973C16.111 4.71917 15.1951 4.5127 14.1487 4.5127C12.7439 4.5127 11.1826 4.85444 9.45987 5.5308C7.73716 4.85207 6.17581 4.5127 4.77107 4.5127C3.72701 4.5127 2.80634 4.71917 2.01854 5.12973C1.46329 5.42875 0.983969 5.85593 0.578208 6.41363C0.172447 6.97371 -0.0197541 7.55989 0.0016017 8.17692C0.0016017 8.58748 0.122615 8.98143 0.369394 9.3564C0.6138 9.73374 0.912781 10.047 1.26634 10.2962C1.61752 10.5477 2.066 10.7969 2.60938 11.0485C3.15277 11.3001 3.62735 11.4923 4.03311 11.6299C4.4365 11.7652 4.9087 11.9266 5.44022 12.1069C5.97412 12.292 6.33717 12.4155 6.52937 12.4843C7.35276 12.7857 8.01953 13.1156 8.54868 13.4668C8.50834 13.5498 8.46326 13.6305 8.43241 13.716C8.3375 13.9889 8.28767 14.2855 8.28767 14.6059C8.26631 15.3369 8.56529 16.0085 9.18461 16.6231C9.22495 16.6659 9.27241 16.6967 9.31275 16.7371C8.8002 17.188 8.20461 17.4633 7.52123 17.5487C6.45343 17.6626 5.1887 17.3327 3.72938 16.5567C2.26769 15.7807 1.10973 14.9714 0.257869 14.1289V16.6255C3.28803 17.8121 5.74157 18.1989 7.61852 17.7884C8.33987 17.6128 8.9497 17.3019 9.45987 16.8652C9.97003 17.3019 10.5775 17.6128 11.3012 17.7884C13.1805 18.1989 15.6341 17.8097 18.6619 16.6255V14.1289C17.81 14.9738 16.652 15.783 15.1903 16.5567C13.7287 17.3327 12.4663 17.6626 11.3985 17.5487M6.90428 10.7946C6.48903 10.6237 6.19479 10.5027 6.02395 10.4362C5.85073 10.3674 5.55412 10.2582 5.127 10.1111C4.69988 9.96394 4.45548 9.87613 4.39141 9.85477C2.96057 9.3303 2.00193 8.77259 1.51075 8.17692C1.04092 7.55989 0.879561 7.00218 1.02905 6.49906C1.17617 5.99832 1.51075 5.59725 2.02091 5.30298C2.53108 5.00633 3.0982 4.86868 3.71751 4.89241C4.18734 4.89241 4.7687 5.01819 5.46158 5.26975C6.15446 5.52131 6.86394 5.84644 7.59004 6.24514C8.3019 6.63671 8.91885 7.05677 9.44563 7.50293V7.52904C9.44563 7.52904 9.45512 7.51954 9.46224 7.51479C9.46698 7.51954 9.47173 7.52429 9.47885 7.52904V7.50293C10.0056 7.05677 10.6249 6.63671 11.3344 6.24514C12.0605 5.84644 12.77 5.52131 13.4629 5.26975C14.1558 5.02056 14.7395 4.89241 15.207 4.89241C15.8263 4.87105 16.391 5.00633 16.9036 5.30298C17.4161 5.59963 17.7483 6.00069 17.8954 6.49906C18.0449 6.99981 17.8859 7.55989 17.4137 8.17692C16.9249 8.76785 15.9639 9.3303 14.5331 9.85477C14.4714 9.87613 14.2246 9.96394 13.7975 10.1111C13.3704 10.2606 13.0737 10.3674 12.9005 10.4362C12.7297 10.505 12.4354 10.6237 12.0202 10.7946C11.6049 10.9654 11.2893 11.1078 11.0758 11.2217C10.8622 11.3357 10.5846 11.4947 10.2429 11.6987C9.90122 11.9052 9.6402 12.1046 9.45749 12.2968C9.27478 12.1022 9.01614 11.9028 8.67207 11.6964C8.33038 11.4923 8.05275 11.3333 7.83919 11.2194C7.62564 11.1055 7.31241 10.9631 6.89479 10.7922M9.03275 14.9856C9.11817 14.7293 9.26529 14.4849 9.46461 14.2452C9.6663 14.4825 9.81105 14.7293 9.89647 14.9856C10.1005 15.5813 9.95579 16.1224 9.46461 16.6113C8.97342 16.1224 8.82631 15.5813 9.03275 14.9856Z" fill="white"/>
<path d="M35.6752 8.58979C36.3278 8.86508 36.8735 9.11902 37.3101 9.34922C37.7468 9.58179 38.181 9.87844 38.6105 10.2368C39.04 10.5975 39.3651 11.0105 39.5881 11.4732C39.8112 11.9384 39.9227 12.4605 39.9227 13.0443C39.9227 14.0244 39.6403 14.8859 39.0732 15.6335C38.5061 16.381 37.8037 16.9435 36.9613 17.3208C36.119 17.6981 35.2268 17.888 34.2824 17.888C33.561 17.888 32.88 17.8144 32.2346 17.6697C31.5915 17.5249 31.0529 17.3398 30.6258 17.1167C30.1963 16.8936 29.8237 16.6753 29.5058 16.4593C29.1878 16.2457 28.96 16.0606 28.8224 15.9064L28.5898 15.6738L29.1831 14.7198C29.2519 14.8052 29.3326 14.912 29.4275 15.0425C29.5224 15.1707 29.7359 15.3938 30.0705 15.7118C30.4051 16.0298 30.7563 16.3122 31.1264 16.5614C31.4966 16.8106 31.9641 17.0384 32.5312 17.2449C33.0983 17.4513 33.6725 17.5534 34.2563 17.5534C35.2861 17.5534 36.24 17.2449 37.1156 16.6255C37.9912 16.0084 38.4278 15.2181 38.4278 14.2546C38.4278 13.3955 38.1003 12.6717 37.4502 12.0784C36.7976 11.4851 35.9315 10.9488 34.8495 10.4694L34.299 10.2273L33.9241 10.0564C33.9075 10.0564 33.7959 10.0137 33.5895 9.92828L33.3569 9.84997C32.7376 9.59129 32.2275 9.3682 31.8241 9.18072C31.4207 8.99324 31.0007 8.75591 30.5617 8.47113C30.1251 8.18872 29.7858 7.90156 29.5437 7.60729C29.3017 7.31538 29.1024 6.9594 28.9387 6.53935C28.7749 6.11929 28.6943 5.65177 28.6943 5.13678C28.6943 3.7627 29.2139 2.65442 30.2532 1.8143C31.2925 0.974189 32.6 0.551758 34.1803 0.551758C35.1247 0.551758 35.9861 0.65381 36.7691 0.860278C37.5498 1.06675 38.0956 1.27321 38.404 1.47968L38.8929 1.7882L38.0956 2.84427C38.06 2.79206 38.0101 2.72087 37.9413 2.62594C37.8725 2.53101 37.7135 2.36726 37.4644 2.13706C37.2152 1.90449 36.9447 1.70276 36.6529 1.53189C36.361 1.36102 35.9695 1.20201 35.4807 1.05488C34.9919 0.91011 34.4817 0.836545 33.9478 0.836545C32.7637 0.836545 31.8264 1.11895 31.1407 1.68615C30.4525 2.25334 30.1109 3.06023 30.1109 4.10682C30.1109 4.51738 30.2058 4.9137 30.3956 5.29104C30.5831 5.66838 30.7942 5.97927 31.0268 6.21896C31.2593 6.45866 31.6058 6.71259 32.0708 6.97839C32.5336 7.24419 32.9085 7.44354 33.1908 7.57169C33.4732 7.69984 33.8908 7.87783 34.439 8.10091L34.6478 8.17685C34.6929 8.20059 34.7474 8.22669 34.7925 8.24568L35.2268 8.40705L35.6729 8.58742L35.6752 8.58979Z" fill="white"/>
<path d="M28.7228 15.6578L28.896 15.831C29.0312 15.9853 29.2567 16.1657 29.5628 16.3721C29.876 16.5857 30.2509 16.8041 30.6733 17.0224C31.0933 17.2407 31.6248 17.4235 32.2583 17.5682C32.8919 17.7106 33.5729 17.7842 34.2824 17.7842C35.2078 17.7842 36.0929 17.5967 36.9187 17.2265C37.7397 16.8586 38.4373 16.3009 38.9902 15.57C39.5407 14.8438 39.8207 13.9942 39.8207 13.0425C39.8207 12.4777 39.7115 11.9651 39.4956 11.5166C39.2797 11.068 38.9593 10.6646 38.5441 10.3134C38.1217 9.95975 37.6898 9.6631 37.2627 9.43764C36.8285 9.20745 36.2803 8.95351 35.6349 8.68297L35.1888 8.5026L34.757 8.34123C34.7119 8.32224 34.6549 8.29614 34.6051 8.27003L34.4034 8.19647C33.8529 7.97338 33.4305 7.79539 33.1458 7.66486C32.861 7.53434 32.4814 7.33499 32.0163 7.06682C31.5465 6.79627 31.1882 6.53522 30.9509 6.28841C30.7112 6.0416 30.4953 5.71884 30.3031 5.33675C30.1085 4.94755 30.0089 4.53461 30.0089 4.10744C30.0089 3.03238 30.3672 2.19227 31.0766 1.60846C31.779 1.0294 32.7448 0.735121 33.9478 0.735121C34.4865 0.735121 35.0132 0.811064 35.5092 0.958203C36.0027 1.10534 36.4061 1.26909 36.7027 1.44471C36.9993 1.62032 37.2793 1.82679 37.5332 2.06411C37.7895 2.3038 37.9485 2.46756 38.022 2.56723C38.0505 2.6052 38.0742 2.6408 38.098 2.67165L38.7434 1.8173L38.3495 1.56811C38.0505 1.36876 37.5095 1.16467 36.7431 0.962947C35.9743 0.761225 35.1129 0.656802 34.1804 0.656802C32.6333 0.656802 31.3329 1.07449 30.3173 1.89561C29.3089 2.71199 28.7963 3.80367 28.7963 5.13978C28.7963 5.64053 28.877 6.09855 29.0336 6.50674C29.1926 6.9173 29.3895 7.26617 29.6221 7.54858C29.8546 7.83099 30.1892 8.1134 30.6163 8.39106C31.0482 8.6711 31.4682 8.90605 31.8668 9.09354C32.2631 9.27865 32.778 9.50409 33.3949 9.76277L33.6204 9.83634C33.8482 9.93127 33.9146 9.95501 33.9336 9.95975H33.9454L34.3417 10.1377L34.8922 10.3798C35.979 10.8616 36.8617 11.4098 37.5214 12.0078C38.1929 12.6177 38.5322 13.3748 38.5322 14.26C38.5322 15.252 38.0766 16.0779 37.1749 16.7139C36.2851 17.3404 35.3051 17.6584 34.2563 17.6584C33.6631 17.6584 33.0722 17.5516 32.4956 17.3428C31.9214 17.1339 31.4421 16.9014 31.0695 16.6474C30.6994 16.3982 30.3387 16.1087 29.9994 15.7883C29.6577 15.4632 29.4417 15.2401 29.3445 15.1048C29.2922 15.0337 29.2424 14.9672 29.1926 14.9008L28.7204 15.6602L28.7228 15.6578ZM34.2848 17.9907C33.561 17.9907 32.8634 17.9171 32.2156 17.77C31.5655 17.6228 31.015 17.433 30.5807 17.2075C30.1512 16.9844 29.7716 16.7613 29.4512 16.5454C29.1285 16.3294 28.8936 16.1372 28.7489 15.9758L28.4641 15.691L29.176 14.5448L29.2661 14.6587C29.3492 14.7631 29.4299 14.8699 29.5129 14.9838C29.6031 15.1072 29.8167 15.3279 30.1441 15.6388C30.4739 15.9521 30.8251 16.2345 31.1858 16.4789C31.5441 16.721 32.0092 16.9465 32.5668 17.1505C33.1197 17.3523 33.6892 17.452 34.2563 17.452C35.26 17.452 36.202 17.1458 37.0563 16.543C37.8987 15.9473 38.3258 15.1784 38.3258 14.2576C38.3258 13.4341 38.0078 12.7269 37.3814 12.1573C36.7383 11.5759 35.8746 11.0396 34.8068 10.5649L33.8909 10.1567C33.8553 10.1472 33.777 10.1188 33.5468 10.0238L33.3214 9.95026C32.6949 9.68921 32.1777 9.46375 31.7766 9.27627C31.3709 9.08641 30.9414 8.84672 30.5024 8.56193C30.0587 8.27478 29.7075 7.97813 29.4607 7.6791C29.2139 7.38008 29.0051 7.01223 28.839 6.58268C28.6729 6.15314 28.5875 5.66663 28.5875 5.14215C28.5875 3.74196 29.1238 2.59808 30.1844 1.73898C31.238 0.887002 32.581 0.455078 34.1756 0.455078C35.1248 0.455078 36.0027 0.559501 36.7905 0.768342C37.5902 0.979557 38.1359 1.18603 38.4563 1.40199L39.0376 1.76983L38.0861 3.02763L38.0054 2.90897C37.9722 2.85914 37.92 2.78557 37.8536 2.69301C37.7895 2.6052 37.6329 2.4462 37.3909 2.21837C37.1488 1.99292 36.8807 1.79357 36.5983 1.62507C36.3159 1.45895 35.9292 1.30232 35.4498 1.15755C34.9729 1.01516 34.4675 0.943964 33.9478 0.943964C32.7922 0.943964 31.8692 1.22162 31.2071 1.76983C30.5475 2.3133 30.2129 3.1012 30.2129 4.11218C30.2129 4.50851 30.3055 4.8906 30.4858 5.25132C30.6685 5.6168 30.8749 5.92056 31.098 6.15314C31.321 6.38571 31.6651 6.6349 32.1183 6.89595C32.5763 7.15937 32.9512 7.35635 33.2288 7.48451C33.5112 7.61266 33.9288 7.79065 34.4746 8.01136L34.6953 8.09204C34.7285 8.11103 34.776 8.13476 34.8305 8.15612L35.26 8.31749L35.7109 8.50024C36.361 8.77315 36.9139 9.03183 37.3553 9.26441C37.7966 9.49935 38.2403 9.80075 38.6746 10.1662C39.1136 10.5341 39.4505 10.9612 39.6807 11.4359C39.9085 11.9129 40.0247 12.4564 40.0247 13.052C40.0247 14.0488 39.7329 14.9411 39.1539 15.7029C38.5797 16.4599 37.8559 17.039 37.0017 17.4211C36.1498 17.8032 35.2339 17.9954 34.2824 17.9954" fill="white"/>
<path d="M78.4559 8.34817C79.1251 8.63058 79.6851 8.88926 80.1335 9.12658C80.582 9.3639 81.0281 9.66766 81.4671 10.0379C81.9061 10.4081 82.243 10.8305 82.4708 11.3052C82.6986 11.7822 82.8149 12.3185 82.8149 12.9166C82.8149 13.9204 82.5254 14.8056 81.9417 15.5722C81.3603 16.3387 80.639 16.9154 79.7752 17.3023C78.9115 17.6891 77.9956 17.8837 77.0275 17.8837C76.2871 17.8837 75.5871 17.8077 74.9275 17.6582C74.2678 17.5087 73.7149 17.3189 73.2759 17.091C72.8346 16.8632 72.4526 16.6378 72.1275 16.417C71.8 16.1963 71.5675 16.0065 71.4275 15.8499L71.1902 15.6125L71.7976 14.6348C71.8665 14.7226 71.9519 14.8318 72.0492 14.9647C72.1465 15.0976 72.3648 15.3254 72.7088 15.6529C73.0529 15.978 73.4136 16.2699 73.7932 16.5238C74.1729 16.7802 74.6522 17.0127 75.2336 17.2239C75.8149 17.4352 76.4058 17.5396 77.0037 17.5396C78.0596 17.5396 79.0396 17.2239 79.9366 16.5879C80.8359 15.9543 81.2844 15.1426 81.2844 14.1554C81.2844 13.2749 80.9498 12.5297 80.2807 11.9222C79.6115 11.3147 78.7217 10.7641 77.6112 10.2705L77.0464 10.0213L76.6597 9.84565C76.643 9.84565 76.5268 9.80294 76.3156 9.71276L76.0783 9.63444C75.4447 9.37102 74.9203 9.14081 74.5051 8.94621C74.0922 8.75161 73.6603 8.50954 73.2095 8.22001C72.761 7.93048 72.4122 7.63383 72.1654 7.33481C71.9187 7.03579 71.7122 6.67032 71.5437 6.23839C71.3776 5.80647 71.2922 5.32708 71.2922 4.79786C71.2922 3.38818 71.8261 2.25142 72.8915 1.38757C73.957 0.523725 75.3 0.0917969 76.9207 0.0917969C77.8888 0.0917969 78.7739 0.198597 79.5759 0.409812C80.3779 0.621027 80.9379 0.832238 81.2535 1.04345L81.7542 1.35909L80.9356 2.44364C80.9 2.39143 80.8478 2.31549 80.7766 2.21819C80.7054 2.12089 80.5441 1.95476 80.2878 1.71744C80.0315 1.48012 79.7539 1.27128 79.4549 1.09566C79.1559 0.920047 78.7549 0.756296 78.2519 0.606785C77.7512 0.457273 77.2268 0.381328 76.6786 0.381328C75.4637 0.381328 74.5027 0.670864 73.798 1.25467C73.0932 1.83611 72.742 2.66435 72.742 3.73941C72.742 4.16184 72.8393 4.56766 73.0339 4.95449C73.2285 5.3437 73.4444 5.65933 73.6817 5.90614C73.919 6.15295 74.2773 6.41163 74.7519 6.68455C75.2264 6.95747 75.6108 7.16157 75.9003 7.2921C76.1898 7.42499 76.6169 7.60536 77.1817 7.83318L77.3976 7.9115C77.4427 7.9376 77.4997 7.96371 77.5471 7.98269L77.9932 8.14882L78.4512 8.33393L78.4559 8.34817Z" fill="white"/>
<path d="M71.3182 15.6011L71.4986 15.7815C71.6386 15.9381 71.8687 16.1232 72.1843 16.3368C72.507 16.5552 72.8891 16.7806 73.3233 17.0037C73.7528 17.2268 74.3009 17.4166 74.9511 17.5638C75.6012 17.7109 76.3012 17.7869 77.0297 17.7869C77.9789 17.7869 78.89 17.5946 79.7372 17.2149C80.5795 16.8352 81.2961 16.2633 81.8633 15.5157C82.428 14.7705 82.7151 13.8972 82.7151 12.9218C82.7151 12.3427 82.6036 11.8135 82.3805 11.3531C82.1599 10.8927 81.83 10.4774 81.4029 10.119C80.9687 9.75594 80.5273 9.45218 80.086 9.2196C79.6375 8.98228 79.0775 8.72123 78.4155 8.44356L77.9575 8.25845L77.5138 8.09233C77.4687 8.07335 77.407 8.04724 77.3572 8.01877L77.1507 7.94282C76.5836 7.71262 76.1517 7.52988 75.8623 7.39698C75.5704 7.26408 75.1813 7.05762 74.7043 6.7847C74.2226 6.50703 73.8548 6.24124 73.6104 5.98731C73.366 5.73337 73.143 5.40587 72.946 5.00954C72.7467 4.61084 72.6446 4.18604 72.6446 3.74937C72.6446 2.64821 73.0124 1.78436 73.7385 1.18632C74.4575 0.593017 75.4494 0.291623 76.6833 0.291623C77.2362 0.291623 77.7748 0.367563 78.285 0.519448C78.7928 0.671333 79.2033 0.839832 79.5094 1.01782C79.8131 1.19819 80.1002 1.41177 80.3589 1.65146C80.6222 1.8959 80.786 2.0644 80.8595 2.16882C80.888 2.20916 80.9165 2.24713 80.9402 2.28036L81.607 1.39753L81.1989 1.14123C80.8904 0.934757 80.3375 0.725917 79.5497 0.519448C78.7595 0.310607 77.8745 0.206184 76.9206 0.206184C75.3331 0.206184 73.9972 0.633364 72.9555 1.47822C71.9209 2.31834 71.3941 3.43849 71.3941 4.80782C71.3941 5.32044 71.4772 5.7927 71.6386 6.21038C71.8023 6.63044 72.004 6.99116 72.2436 7.27832C72.4833 7.56785 72.825 7.85976 73.264 8.14217C73.7077 8.42933 74.1396 8.67139 74.5453 8.86125C74.9511 9.0511 75.4802 9.28368 76.1138 9.54711L76.344 9.62304C76.5789 9.72035 76.6477 9.74408 76.6643 9.74882H76.6762L77.0819 9.93156L77.6467 10.1784C78.7619 10.6744 79.6683 11.2344 80.3422 11.8467C81.0304 12.4733 81.3792 13.2493 81.3792 14.1559C81.3792 15.174 80.9117 16.0188 79.9887 16.6715C79.0775 17.3146 78.069 17.6421 76.9965 17.6421C76.389 17.6421 75.7816 17.5329 75.1907 17.3193C74.6023 17.1058 74.1111 16.8661 73.7291 16.6074C73.347 16.3511 72.9792 16.0544 72.6328 15.7245C72.2816 15.3923 72.0609 15.1621 71.9613 15.0245C71.9067 14.9509 71.8545 14.8821 71.8023 14.8132L71.3158 15.5988L71.3182 15.6011ZM77.0297 17.991C76.287 17.991 75.5728 17.915 74.906 17.7631C74.2392 17.6112 73.6745 17.4166 73.2307 17.1864C72.7918 16.9586 72.4002 16.7284 72.0704 16.5077C71.7406 16.2846 71.4986 16.0876 71.3514 15.9215L71.0596 15.632L71.788 14.462L71.8782 14.5759C71.9636 14.6851 72.0467 14.7943 72.1321 14.9082C72.2246 15.0339 72.443 15.2618 72.7799 15.5822C73.1192 15.9025 73.4775 16.1921 73.8501 16.4436C74.2202 16.6928 74.6972 16.9254 75.269 17.1319C75.8362 17.3383 76.4199 17.4427 77.0036 17.4427C78.0334 17.4427 79.0016 17.1295 79.8772 16.5101C80.7433 15.9002 81.1822 15.1099 81.1822 14.163C81.1822 13.3157 80.8548 12.5919 80.2117 12.0057C79.5521 11.4077 78.6646 10.8571 77.5707 10.373L76.6311 9.95529C76.5955 9.9458 76.5148 9.91733 76.2775 9.82002L76.0473 9.74408C75.4043 9.47591 74.8728 9.24333 74.4646 9.05348C74.0494 8.85888 73.608 8.61206 73.1572 8.32016C72.7016 8.02588 72.3433 7.71974 72.0894 7.41359C71.8379 7.10745 71.6219 6.73011 71.4511 6.2887C71.2802 5.84728 71.1925 5.35128 71.1925 4.81257C71.1925 3.37678 71.743 2.20442 72.8297 1.32396C73.9094 0.450622 75.288 0.00683594 76.9229 0.00683594C77.8958 0.00683594 78.7975 0.113631 79.6043 0.32722C80.4253 0.543181 80.9853 0.756764 81.3127 0.975099L81.906 1.35007L80.9331 2.63634L80.8524 2.51768C80.8168 2.46547 80.7646 2.3919 80.6958 2.2946C80.6294 2.20442 80.4704 2.04067 80.2212 1.80809C79.9721 1.57552 79.6992 1.37143 79.4073 1.20056C79.1155 1.02969 78.7192 0.86831 78.228 0.721172C77.7368 0.574033 77.2195 0.500459 76.6856 0.500459C75.4992 0.500459 74.5524 0.785247 73.8714 1.35007C73.1952 1.90777 72.8511 2.71703 72.8511 3.75649C72.8511 4.16231 72.946 4.55626 73.1311 4.92648C73.3185 5.30145 73.5297 5.61471 73.7599 5.8544C73.9901 6.09409 74.3413 6.3504 74.8063 6.6162C75.2762 6.88675 75.6606 7.09084 75.9477 7.21899C76.2348 7.34952 76.6667 7.53225 77.2267 7.76008L77.4521 7.84314C77.4853 7.86213 77.5351 7.88586 77.5921 7.90959L78.0334 8.07572L78.4961 8.2632C79.1629 8.54324 79.73 8.80666 80.1833 9.04636C80.6365 9.28605 81.0897 9.59694 81.5358 9.96954C81.9866 10.3469 82.3331 10.7859 82.5656 11.2724C82.8005 11.7613 82.9192 12.3166 82.9192 12.9289C82.9192 13.9518 82.6178 14.8654 82.027 15.6462C81.4385 16.4223 80.6958 17.0156 79.8202 17.4095C78.947 17.8011 78.0073 18.0004 77.0297 18.0004" fill="white"/>
<path d="M48.1637 17.4497C48.8329 17.4497 49.4261 17.3121 49.941 17.0368C50.4559 16.7615 50.8593 16.4032 51.1511 15.9546C51.443 15.5085 51.6566 15.0267 51.7942 14.5117C51.9318 13.9967 52.0006 13.4651 52.0006 12.9146C52.0006 12.1599 51.8725 11.3649 51.6139 10.5319C51.3552 9.69887 51.0088 8.91809 50.5698 8.18714C50.1332 7.45857 49.5684 6.85341 48.8827 6.37165C48.1969 5.88989 47.4661 5.65019 46.6949 5.65019L46.5146 5.67629C45.3803 5.71189 44.4834 6.14382 43.8237 6.97681C43.1617 7.8098 42.8319 8.92046 42.8319 10.3135C42.8319 11.0706 42.9505 11.8537 43.1925 12.6701C43.4322 13.4865 43.7668 14.253 44.1963 14.9745C44.6258 15.696 45.1881 16.2869 45.8834 16.752C46.5786 17.2148 47.3379 17.4474 48.1637 17.4474M47.4186 5.32031C48.2254 5.32031 48.999 5.44609 49.7369 5.69291C50.4749 5.94209 51.1488 6.30757 51.7586 6.78696C52.3684 7.26872 52.8525 7.91185 53.2132 8.71874C53.5738 9.52563 53.7542 10.4441 53.7542 11.474C53.7542 12.7271 53.4362 13.852 52.8003 14.8487C52.1644 15.8455 51.3671 16.5954 50.4061 17.1033C49.445 17.6088 48.4484 17.8627 47.4186 17.8627C46.6285 17.8627 45.8644 17.7369 45.1264 17.4901C44.3885 17.2409 43.7098 16.8731 43.0929 16.3818C42.4759 15.8929 41.98 15.245 41.6122 14.4382C41.242 13.6313 41.0593 12.7223 41.0593 11.709C41.0593 10.4393 41.3773 9.30492 42.0132 8.30818C42.6491 7.31143 43.4417 6.56625 44.3956 6.06788C45.3495 5.5695 46.3556 5.32031 47.421 5.32031" fill="white"/>
<path d="M46.7045 5.75691L46.5195 5.78301C45.4232 5.81624 44.5429 6.24104 43.9046 7.04556C43.2615 7.85719 42.9341 8.95599 42.9341 10.3182C42.9341 11.061 43.0527 11.8442 43.29 12.6463C43.5273 13.4485 43.8618 14.2174 44.2842 14.927C44.7042 15.6318 45.2595 16.218 45.9405 16.6713C46.6168 17.1222 47.3642 17.35 48.1639 17.35C48.814 17.35 49.3954 17.2147 49.8937 16.9489C50.3896 16.6831 50.7859 16.3319 51.0659 15.9023C51.3506 15.468 51.5618 14.9934 51.6971 14.4903C51.8323 13.9848 51.8988 13.4579 51.8988 12.9192C51.8988 12.1788 51.7706 11.3861 51.5167 10.5674C51.2628 9.74626 50.9164 8.96548 50.4845 8.2464C50.055 7.53206 49.4974 6.93164 48.8259 6.46175C48.1615 5.9966 47.4473 5.76165 46.7022 5.75928M48.1639 17.5517C47.3239 17.5517 46.5384 17.312 45.829 16.8398C45.1242 16.3699 44.5476 15.7599 44.111 15.029C43.6791 14.3028 43.3374 13.5196 43.0954 12.7009C42.8534 11.8821 42.73 11.0776 42.73 10.3158C42.73 8.90852 43.0717 7.76463 43.7432 6.9174C44.4195 6.06542 45.3473 5.61452 46.5052 5.57892L46.6951 5.55281C47.4852 5.55281 48.2422 5.802 48.9422 6.29325C49.6374 6.77975 50.214 7.40153 50.6577 8.1396C51.0991 8.87292 51.4527 9.67031 51.7113 10.5057C51.9699 11.3458 52.1028 12.1574 52.1028 12.9192C52.1028 13.4746 52.0316 14.0204 51.894 14.5425C51.754 15.067 51.5333 15.563 51.2367 16.0139C50.9354 16.4743 50.5177 16.8492 49.9886 17.1293C49.4618 17.4117 48.8472 17.5541 48.1639 17.5541M47.4188 5.42229C46.3747 5.42229 45.3734 5.66909 44.4408 6.15797C43.5083 6.64685 42.7205 7.38729 42.0964 8.36268C41.4747 9.33807 41.1591 10.463 41.1591 11.7065C41.1591 12.7009 41.3419 13.6051 41.7025 14.393C42.0632 15.1809 42.552 15.824 43.1547 16.301C43.7598 16.7804 44.4361 17.1483 45.1574 17.3927C45.8835 17.6372 46.6429 17.7606 47.4164 17.7606C48.4249 17.7606 49.4144 17.509 50.3564 17.013C51.296 16.517 52.091 15.7718 52.7127 14.7941C53.3343 13.821 53.6499 12.7033 53.6499 11.4739C53.6499 10.463 53.472 9.54928 53.1184 8.75901C52.7672 7.9711 52.2879 7.33508 51.6947 6.86519C51.0967 6.39292 50.4276 6.02982 49.7039 5.78776C48.9778 5.54332 48.2089 5.41991 47.4188 5.41991M47.4188 17.9646C46.6215 17.9646 45.8408 17.8365 45.0934 17.5849C44.3483 17.3334 43.653 16.956 43.029 16.46C42.4002 15.964 41.8924 15.2972 41.5174 14.4784C41.1449 13.662 40.9551 12.7294 40.9551 11.7065C40.9551 10.4226 41.2802 9.25975 41.9232 8.25114C42.5639 7.2449 43.3802 6.47836 44.3435 5.97524C45.3069 5.47212 46.3415 5.21582 47.4164 5.21582C48.2303 5.21582 49.0205 5.34397 49.7655 5.59316C50.5106 5.84472 51.2011 6.21968 51.8181 6.70381C52.4374 7.19269 52.9381 7.85481 53.3035 8.67357C53.6689 9.48995 53.854 10.4321 53.854 11.4716C53.854 12.7389 53.5289 13.8922 52.8859 14.9009C52.2452 15.9071 51.4266 16.6784 50.4537 17.191C49.4808 17.7036 48.4605 17.9623 47.4188 17.9623" fill="white"/>
<path d="M65.4454 5.32031L65.4715 17.6823H63.7464V16.0852C62.1495 17.1317 60.7329 17.6562 59.4966 17.6562C58.3292 17.6562 57.4275 17.3097 56.7916 16.6144C56.1556 15.919 55.8377 14.927 55.8377 13.6384V5.65493H54.8577V5.32031H57.5888L57.6149 13.1756C57.6149 15.7173 58.6448 16.987 60.7044 16.987C61.58 16.987 62.5742 16.593 63.6919 15.8027V5.65493H62.7142V5.32031H65.443H65.4454Z" fill="white"/>
<path d="M63.846 17.5802H65.367L65.3409 5.42229H62.8162V5.55281H63.7938V15.8549L63.7511 15.8857C62.6216 16.6855 61.5965 17.0889 60.7043 17.0889C58.5853 17.0889 57.5104 15.7718 57.5104 13.1755L57.4843 5.42229H54.9596V5.55281H55.9396V13.6383C55.9396 14.8937 56.2504 15.8715 56.865 16.5455C57.4772 17.2147 58.3599 17.5541 59.4941 17.5541C60.7043 17.5541 62.1138 17.032 63.687 15.9996L63.846 15.8952V17.5802ZM65.5734 17.7843H63.6443V16.2726C62.1019 17.2574 60.7067 17.7582 59.4989 17.7582C58.2911 17.7582 57.3704 17.3951 56.7202 16.6808C56.0701 15.9688 55.7403 14.9459 55.7403 13.6359V5.75453H54.7603V5.21582H57.6955L57.7216 13.1732C57.7216 15.6698 58.6992 16.8825 60.709 16.8825C61.5467 16.8825 62.5172 16.5004 63.5945 15.7457V5.75453H62.6168V5.21582H65.5497L65.5758 17.7843H65.5734Z" fill="white"/>
<path d="M66.8857 0.606445H69.643V17.6816H67.8657V0.967169L66.8857 0.941068V0.606445Z" fill="white"/>
<path d="M67.9678 17.5795H69.541V0.70842H66.9902V0.841319L67.9678 0.867428V17.5795ZM69.7451 17.7836H67.7638V1.0644L66.7861 1.0383V0.501953H69.7451V17.7836Z" fill="white"/>
<path d="M89.5229 5.5762C88.5619 5.5762 87.7338 5.91557 87.0385 6.59431C86.3433 7.27304 85.8829 8.1796 85.6599 9.31162H92.5602C92.5602 8.29826 92.3015 7.42255 91.7866 6.68448C91.2717 5.94642 90.5148 5.5762 89.5205 5.5762M95.5476 14.2835L95.7019 14.4899C95.6331 14.5754 95.5429 14.6917 95.4314 14.8388C95.3199 14.9836 95.0707 15.2375 94.6839 15.5982C94.2971 15.959 93.8938 16.2817 93.4738 16.5641C93.0538 16.8489 92.508 17.1052 91.8388 17.3378C91.1697 17.5704 90.4911 17.6866 89.8053 17.6866C89.1195 17.6866 88.4053 17.549 87.7195 17.2737C87.0314 16.9984 86.4073 16.614 85.8402 16.1156C85.2731 15.6172 84.8128 14.9788 84.4616 14.1957C84.1104 13.4149 83.9348 12.5605 83.9348 11.6326C83.9348 9.72693 84.4284 8.19858 85.4155 7.04758C86.4026 5.89658 87.7884 5.32227 89.5751 5.32227C90.8802 5.32227 91.9907 5.76368 92.909 6.64888C93.8273 7.53409 94.3043 8.51659 94.3375 9.59877H85.6599C85.5389 10.0117 85.5009 10.4697 85.5436 10.9776C85.5863 11.4855 85.6599 12.0028 85.7619 12.5368C85.864 13.0684 86.0585 13.5834 86.3409 14.0818C86.6233 14.5801 86.9531 15.0263 87.3328 15.4202C87.7101 15.8142 88.1941 16.1275 88.7873 16.36C89.3806 16.5926 90.0355 16.7089 90.7568 16.7089C91.2883 16.7089 91.8127 16.6282 92.3277 16.4644C92.8426 16.3007 93.2839 16.099 93.6541 15.8593C94.0219 15.6196 94.3588 15.3775 94.6578 15.1378C94.9592 14.8981 95.187 14.6917 95.3412 14.5208L95.5476 14.2882V14.2835Z" fill="white"/>
<path d="M85.7856 9.20991H92.4581C92.4415 8.26538 92.1876 7.43713 91.7035 6.74416C91.2099 6.03931 90.4767 5.68097 89.5205 5.68097C88.5642 5.68097 87.7788 6.01321 87.1073 6.66822C86.4547 7.30424 86.0086 8.15859 85.7832 9.20991M92.6645 9.41401H85.5364L85.5601 9.29298C85.7856 8.14435 86.2578 7.21406 86.9673 6.52108C87.6791 5.82573 88.5405 5.4745 89.5228 5.4745C90.5052 5.4745 91.3405 5.86132 91.872 6.6255C92.3964 7.3778 92.6621 8.28199 92.6621 9.31196V9.41401H92.6645ZM89.575 5.42229C87.8286 5.42229 86.4547 5.99185 85.4937 7.11201C84.5279 8.2369 84.0368 9.75813 84.0368 11.6306C84.0368 12.5395 84.2124 13.3868 84.5564 14.1509C84.9005 14.9151 85.3561 15.5487 85.909 16.0352C86.4642 16.5241 87.0883 16.9086 87.7598 17.1768C88.4313 17.4449 89.1195 17.5826 89.8076 17.5826C90.4957 17.5826 91.153 17.4663 91.8079 17.2408C92.4652 17.013 93.0086 16.7567 93.4191 16.479C93.832 16.2014 94.2354 15.8786 94.6174 15.5226C94.9971 15.169 95.2438 14.9175 95.353 14.7751C95.4408 14.6612 95.5143 14.5662 95.576 14.4879L95.5428 14.4452L95.4194 14.5828C95.2604 14.7585 95.0279 14.9697 94.7242 15.2117C94.4252 15.4514 94.0835 15.6959 93.7133 15.9379C93.3384 16.1824 92.8828 16.3889 92.3608 16.555C91.8388 16.7211 91.3001 16.8042 90.7591 16.8042C90.0283 16.8042 89.3544 16.6855 88.7517 16.4482C88.1466 16.2109 87.6459 15.8857 87.2591 15.4847C86.8771 15.086 86.5378 14.6279 86.253 14.1248C85.9659 13.6193 85.7666 13.0901 85.6622 12.549C85.5578 12.0103 85.4842 11.4811 85.4415 10.9803C85.3964 10.463 85.4368 9.98832 85.5601 9.56589L85.5815 9.49233H94.2282C94.1666 8.48372 93.6991 7.55105 92.8354 6.71805C91.9408 5.85658 90.8422 5.41991 89.5727 5.41991M89.8052 17.7843C89.091 17.7843 88.3767 17.6419 87.6815 17.3642C86.9886 17.0866 86.3456 16.6902 85.7713 16.1871C85.1947 15.6816 84.7225 15.0243 84.3666 14.234C84.0107 13.4437 83.8303 12.568 83.8303 11.6282C83.8303 9.70591 84.3357 8.14197 85.3347 6.97673C86.3384 5.80674 87.7622 5.21582 89.5727 5.21582C90.8991 5.21582 92.0452 5.67147 92.9777 6.57092C93.9126 7.47036 94.4038 8.48609 94.4394 9.58963V9.69642H85.7357C85.6361 10.0761 85.6052 10.5009 85.6432 10.9637C85.6835 11.4597 85.7571 11.9794 85.8615 12.511C85.9612 13.0284 86.1534 13.5386 86.4286 14.0251C86.7062 14.514 87.0361 14.9578 87.4062 15.3446C87.7717 15.7267 88.2486 16.0352 88.8252 16.2607C89.4018 16.4861 90.052 16.6024 90.7567 16.6024C91.2764 16.6024 91.7937 16.5217 92.2967 16.3627C92.7998 16.2037 93.2388 16.0044 93.5994 15.7694C93.9649 15.5297 94.2994 15.2901 94.596 15.0527C94.8903 14.8178 95.1157 14.6137 95.2676 14.4452L95.557 14.1201L95.8347 14.4903L95.7848 14.552C95.716 14.6374 95.6259 14.7537 95.5167 14.8985C95.4004 15.0504 95.1513 15.3043 94.7598 15.6698C94.3706 16.0329 93.9601 16.3604 93.5377 16.6452C93.1106 16.9323 92.553 17.1957 91.8791 17.4307C91.2028 17.6656 90.5052 17.7843 89.81 17.7843" fill="white"/>
<path d="M103.274 5.32031C104.458 5.32031 105.359 5.66443 105.979 6.35029C106.596 7.03614 106.907 8.02339 106.907 9.31204V17.6823H105.208V9.77482C105.208 8.53838 104.942 7.59859 104.41 6.95545C103.879 6.31231 103.098 5.98956 102.066 5.98956C101.207 5.98956 100.213 6.38589 99.0784 7.17379V17.6823H97.3272V5.65493H96.3496V5.32031H99.0808V6.86527C100.661 5.8353 102.059 5.32031 103.278 5.32031" fill="white"/>
<path d="M105.307 17.5803H106.802V9.3121C106.802 8.05668 106.499 7.08366 105.901 6.41917C105.305 5.75704 104.42 5.42243 103.271 5.42243C102.123 5.42243 100.685 5.93741 99.1308 6.95077L98.9718 7.05281V5.42005H96.447V5.55057H97.4247V17.578H98.9718V7.11926L99.0169 7.08841C100.163 6.29102 101.188 5.8852 102.061 5.8852C103.117 5.8852 103.933 6.22219 104.484 6.88906C105.03 7.54881 105.305 8.51945 105.305 9.77488V17.5803H105.307ZM107.009 17.7844H105.103V9.77488C105.103 8.56929 104.842 7.64137 104.327 7.01959C103.817 6.40255 103.055 6.09166 102.064 6.09166C101.243 6.09166 100.272 6.47375 99.1782 7.22843V17.7868H97.223V5.75942H96.2454V5.2207H99.1806V6.68022C100.706 5.71195 102.083 5.2207 103.276 5.2207C104.47 5.2207 105.421 5.57906 106.057 6.2839C106.691 6.98637 107.011 8.00684 107.011 9.31448V17.7868L107.009 17.7844Z" fill="white"/>
<path d="M113.574 10.5481C114.037 10.7023 114.388 10.8233 114.63 10.9088C114.87 10.9942 115.183 11.1414 115.57 11.3455C115.957 11.5519 116.248 11.7584 116.445 11.9625C116.642 12.169 116.818 12.4442 116.975 12.786C117.129 13.1301 117.207 13.5169 117.207 13.9441C117.207 14.9575 116.816 15.8332 116.035 16.5712C115.254 17.3093 114.158 17.6795 112.751 17.6795C112.013 17.6795 111.303 17.5775 110.627 17.371C109.948 17.1645 109.445 16.9581 109.12 16.754L108.655 16.4455L109.17 15.5436C109.275 15.6647 109.41 15.8023 109.583 15.9566C109.754 16.1108 110.008 16.3078 110.342 16.5499C110.677 16.7896 111.08 16.9913 111.553 17.1551C112.025 17.3188 112.509 17.3995 113.007 17.3995C113.814 17.3995 114.521 17.1812 115.131 16.7421C115.741 16.3054 116.044 15.7501 116.044 15.0809C116.044 14.7368 115.971 14.4235 115.826 14.1411C115.681 13.8563 115.518 13.6308 115.337 13.4576C115.157 13.2867 114.882 13.1064 114.514 12.9165C114.144 12.729 113.84 12.5914 113.6 12.5036C113.361 12.4181 113 12.2971 112.518 12.1428C111.213 11.7299 110.243 11.2339 109.609 10.6501C108.973 10.0663 108.655 9.27602 108.655 8.28165C108.655 8.00636 108.724 7.71208 108.862 7.39407C108.999 7.07606 109.196 6.75568 109.455 6.42818C109.714 6.10305 110.081 5.83725 110.561 5.63079C111.042 5.42432 111.581 5.32227 112.184 5.32227C112.682 5.32227 113.176 5.38634 113.664 5.51449C114.153 5.64265 114.576 5.80165 114.927 5.99151C115.278 6.18137 115.591 6.36885 115.866 6.5587C116.142 6.74856 116.348 6.90282 116.483 7.02148L116.69 7.22795L116.073 8.2057C116.037 8.13688 115.987 8.04195 115.919 7.92329C115.85 7.80226 115.696 7.59342 115.456 7.29203C115.216 6.99063 114.962 6.72957 114.697 6.50649C114.431 6.28341 114.075 6.07695 113.629 5.88946C113.183 5.70198 112.718 5.60705 112.238 5.60705C111.569 5.60705 110.993 5.78742 110.513 6.14814C110.032 6.50887 109.792 6.99775 109.792 7.61715C109.792 7.97788 109.877 8.30538 110.051 8.59491C110.221 8.88682 110.485 9.14787 110.836 9.38044C111.187 9.61301 111.541 9.80049 111.892 9.94763C112.243 10.0948 112.694 10.2609 113.244 10.4508L113.579 10.5528L113.574 10.5481Z" fill="white"/>
<path d="M108.793 16.4145L109.177 16.6708C109.493 16.8702 109.991 17.0743 110.658 17.276C111.322 17.4777 112.027 17.5798 112.753 17.5798C114.127 17.5798 115.209 17.2167 115.966 16.5C116.723 15.7856 117.105 14.9265 117.105 13.9464C117.105 13.5335 117.029 13.1585 116.882 12.8286C116.733 12.4964 116.562 12.2282 116.374 12.0336C116.184 11.8366 115.897 11.6349 115.525 11.4356C115.145 11.2338 114.834 11.0891 114.599 11.0036C114.357 10.9182 114.004 10.7972 113.546 10.6453L113.211 10.5432C112.646 10.3486 112.2 10.1825 111.849 10.0377C111.496 9.89298 111.135 9.69838 110.777 9.46343C110.411 9.22374 110.136 8.94845 109.958 8.64468C109.778 8.33853 109.687 7.99205 109.687 7.61471C109.687 6.96445 109.944 6.44472 110.449 6.06501C110.945 5.69242 111.545 5.50256 112.236 5.50256C112.727 5.50256 113.209 5.59986 113.667 5.79446C114.118 5.98669 114.488 6.20028 114.761 6.42811C115.031 6.65593 115.292 6.92411 115.534 7.22787C115.781 7.53639 115.935 7.7476 116.006 7.87101C116.033 7.9161 116.056 7.9612 116.08 8.00154L116.562 7.23975L116.412 7.09023C116.282 6.97632 116.078 6.82444 115.809 6.63933C115.539 6.45422 115.226 6.26436 114.879 6.07925C114.535 5.89414 114.118 5.73751 113.638 5.61173C113.159 5.48595 112.67 5.42187 112.184 5.42187C111.6 5.42187 111.066 5.52392 110.601 5.72327C110.138 5.92262 109.78 6.17892 109.533 6.48981C109.282 6.8102 109.087 7.12583 108.954 7.43197C108.824 7.73574 108.757 8.02052 108.757 8.2792C108.757 9.24035 109.066 10.0116 109.678 10.5741C110.297 11.1437 111.265 11.6397 112.549 12.0455C113.043 12.2045 113.396 12.3231 113.634 12.4062C113.876 12.494 114.186 12.634 114.559 12.8239C114.936 13.0161 115.221 13.2036 115.406 13.3816C115.594 13.5619 115.764 13.7993 115.916 14.0912C116.068 14.3878 116.146 14.7201 116.146 15.0784C116.146 15.7785 115.824 16.3671 115.19 16.8227C114.566 17.2713 113.831 17.4991 113.005 17.4991C112.497 17.4991 111.996 17.416 111.517 17.2499C111.038 17.0838 110.622 16.8773 110.281 16.6305C109.944 16.3884 109.685 16.1867 109.512 16.0301C109.384 15.9162 109.277 15.8117 109.187 15.7144L108.788 16.4098L108.793 16.4145ZM112.751 17.7839C112.006 17.7839 111.28 17.6771 110.596 17.4706C109.913 17.2641 109.398 17.0506 109.066 16.8417L108.52 16.4786L109.154 15.368L109.248 15.4771C109.348 15.5934 109.483 15.7287 109.652 15.8806C109.818 16.0324 110.072 16.2294 110.402 16.4667C110.727 16.6993 111.125 16.8987 111.586 17.0577C112.044 17.2167 112.523 17.2974 113.007 17.2974C113.788 17.2974 114.483 17.0838 115.072 16.659C115.658 16.2365 115.942 15.7216 115.942 15.0808C115.942 14.7557 115.874 14.4543 115.736 14.1885C115.596 13.9179 115.439 13.6972 115.268 13.5335C115.095 13.3697 114.827 13.1941 114.469 13.009C114.103 12.8239 113.8 12.6862 113.567 12.6032C113.332 12.5201 112.979 12.4015 112.49 12.2448C111.178 11.8295 110.183 11.3193 109.543 10.7283C108.888 10.1279 108.556 9.30443 108.556 8.28395C108.556 7.9968 108.627 7.68353 108.769 7.35365C108.909 7.0309 109.113 6.69866 109.374 6.36403C109.642 6.02467 110.027 5.747 110.52 5.53578C111.012 5.32457 111.572 5.21777 112.184 5.21777C112.689 5.21777 113.195 5.28423 113.691 5.41475C114.184 5.54528 114.618 5.70902 114.974 5.89888C115.328 6.08874 115.646 6.28097 115.923 6.47082C116.199 6.66068 116.41 6.81969 116.55 6.94072L116.818 7.20889L116.061 8.40736L115.98 8.24836C115.942 8.17479 115.89 8.07985 115.828 7.96831C115.762 7.8544 115.61 7.64556 115.373 7.35129C115.138 7.05701 114.886 6.79833 114.628 6.58C114.369 6.36403 114.018 6.16231 113.586 5.9772C113.154 5.79446 112.699 5.70191 112.236 5.70191C111.591 5.70191 111.031 5.87753 110.573 6.22164C110.115 6.56575 109.892 7.01903 109.892 7.60759C109.892 7.94933 109.972 8.26022 110.136 8.53551C110.297 8.8108 110.551 9.06473 110.891 9.28781C111.237 9.51564 111.588 9.70312 111.93 9.84552C112.276 9.99028 112.718 10.154 113.275 10.3463L113.61 10.4483C114.068 10.6002 114.424 10.7236 114.668 10.809C114.913 10.8968 115.235 11.0464 115.622 11.2528C116.016 11.4617 116.317 11.6776 116.524 11.8912C116.728 12.1048 116.913 12.392 117.072 12.7456C117.231 13.1015 117.314 13.505 117.314 13.9464C117.314 14.9835 116.908 15.8924 116.111 16.6471C115.314 17.3994 114.184 17.7815 112.758 17.7815" fill="white"/>
<path d="M124.081 5.5762C123.12 5.5762 122.292 5.91557 121.597 6.59431C120.902 7.27304 120.441 8.1796 120.218 9.31162H127.119C127.119 8.29826 126.86 7.42255 126.345 6.68448C125.83 5.94642 125.073 5.5762 124.079 5.5762M130.108 14.2835L130.263 14.4899C130.194 14.5754 130.104 14.6917 129.992 14.8388C129.881 14.9836 129.632 15.2375 129.245 15.5982C128.858 15.959 128.455 16.2817 128.035 16.5641C127.615 16.8489 127.069 17.1052 126.4 17.3378C125.731 17.5704 125.052 17.6866 124.366 17.6866C123.68 17.6866 122.966 17.549 122.28 17.2737C121.592 16.9984 120.968 16.614 120.401 16.1156C119.834 15.6172 119.374 14.9788 119.022 14.1957C118.671 13.4149 118.496 12.5605 118.496 11.6326C118.496 9.72693 118.989 8.19858 119.976 7.04758C120.963 5.89658 122.349 5.32227 124.136 5.32227C125.441 5.32227 126.552 5.76368 127.47 6.64888C128.388 7.53409 128.865 8.51659 128.898 9.59877H120.221C120.1 10.0117 120.062 10.4697 120.104 10.9776C120.147 11.4855 120.221 12.0028 120.323 12.5368C120.425 13.0684 120.619 13.5834 120.902 14.0818C121.184 14.5801 121.514 15.0263 121.894 15.4202C122.271 15.8142 122.755 16.1275 123.348 16.36C123.941 16.5926 124.596 16.7089 125.318 16.7089C125.849 16.7089 126.374 16.6282 126.888 16.4644C127.403 16.3007 127.845 16.099 128.215 15.8593C128.583 15.6196 128.92 15.3775 129.219 15.1378C129.52 14.8981 129.748 14.6917 129.902 14.5208L130.108 14.2882V14.2835Z" fill="white"/>
<path d="M120.344 9.20991H127.017C127 8.26538 126.746 7.43713 126.262 6.74416C125.769 6.03931 125.035 5.68097 124.079 5.68097C123.123 5.68097 122.337 6.01321 121.666 6.66822C121.013 7.30424 120.567 8.15859 120.342 9.20991M127.223 9.41401H120.095L120.119 9.29298C120.344 8.14435 120.816 7.21406 121.526 6.52108C122.238 5.82573 123.097 5.4745 124.081 5.4745C125.066 5.4745 125.899 5.86132 126.431 6.6255C126.955 7.3778 127.221 8.28199 127.221 9.31196V9.41401H127.223ZM124.134 5.42229C122.387 5.42229 121.013 5.99185 120.052 7.11201C119.087 8.2369 118.595 9.75813 118.595 11.6306C118.595 12.5395 118.771 13.3868 119.115 14.1509C119.459 14.9151 119.915 15.5487 120.468 16.0352C121.023 16.5241 121.647 16.9086 122.318 17.1768C122.99 17.4449 123.678 17.5826 124.366 17.5826C125.054 17.5826 125.712 17.4663 126.367 17.2408C127.024 17.013 127.567 16.7567 127.978 16.479C128.391 16.2014 128.794 15.8786 129.176 15.5226C129.556 15.169 129.802 14.9175 129.912 14.7751C129.999 14.6612 130.073 14.5662 130.135 14.4879L130.101 14.4452L129.978 14.5828C129.819 14.7585 129.587 14.9697 129.283 15.2117C128.984 15.4514 128.642 15.6959 128.272 15.9379C127.897 16.1824 127.441 16.3889 126.919 16.555C126.397 16.7211 125.859 16.8042 125.318 16.8042C124.587 16.8042 123.913 16.6855 123.31 16.4482C122.705 16.2109 122.205 15.8857 121.818 15.4847C121.436 15.086 121.096 14.6279 120.812 14.1248C120.525 13.6193 120.325 13.0901 120.221 12.549C120.116 12.0103 120.043 11.4811 120 10.9803C119.955 10.463 119.995 9.98832 120.119 9.56589L120.14 9.49233H128.787C128.725 8.48372 128.258 7.55105 127.394 6.71805C126.499 5.85658 125.401 5.41991 124.131 5.41991M124.366 17.7843C123.652 17.7843 122.938 17.6419 122.243 17.3642C121.55 17.0866 120.907 16.6902 120.332 16.1871C119.756 15.6816 119.284 15.0243 118.928 14.234C118.572 13.4437 118.391 12.568 118.391 11.6282C118.391 9.70591 118.897 8.14197 119.896 6.97673C120.899 5.80674 122.323 5.21582 124.134 5.21582C125.46 5.21582 126.606 5.67147 127.539 6.57092C128.474 7.47036 128.965 8.48609 129 9.58963V9.69642H120.297C120.197 10.0761 120.166 10.5009 120.204 10.9637C120.247 11.4597 120.318 11.9794 120.423 12.511C120.522 13.0284 120.714 13.5386 120.99 14.0251C121.267 14.514 121.597 14.9578 121.967 15.3446C122.333 15.7267 122.81 16.0352 123.386 16.2607C123.963 16.4861 124.613 16.6024 125.318 16.6024C125.837 16.6024 126.355 16.5217 126.858 16.3627C127.361 16.2037 127.8 16.0044 128.16 15.7694C128.526 15.5297 128.86 15.2901 129.157 15.0527C129.451 14.8178 129.677 14.6137 129.829 14.4452L130.118 14.1201L130.396 14.4903L130.346 14.552C130.277 14.6374 130.187 14.7537 130.075 14.8985C129.959 15.0504 129.71 15.3043 129.318 15.6698C128.929 16.0329 128.519 16.3604 128.096 16.6452C127.669 16.9323 127.112 17.1957 126.438 17.4307C125.761 17.6656 125.064 17.7843 124.369 17.7843" fill="white"/>
<path d="M133.535 2.74275C133.295 2.98482 133.006 3.10347 132.671 3.10347C132.337 3.10347 132.05 2.98482 131.81 2.74275C131.568 2.50306 131.449 2.21115 131.449 1.86704C131.449 1.52292 131.565 1.20729 131.796 0.965223C132.028 0.72553 132.325 0.604492 132.685 0.604492C133.046 0.604492 133.317 0.72553 133.547 0.965223C133.779 1.20492 133.896 1.50631 133.896 1.86704C133.896 2.22776 133.775 2.50306 133.535 2.74275ZM130.882 5.68077V5.34615H133.613V17.6844H131.862V5.68314H130.884L130.882 5.68077Z" fill="white"/>
<path d="M132.683 0.70842C132.349 0.70842 132.083 0.815218 131.869 1.0383C131.656 1.26138 131.551 1.53192 131.551 1.86892C131.551 2.18693 131.658 2.45035 131.881 2.67343C132.104 2.89651 132.363 3.00331 132.671 3.00331C132.98 3.00331 133.238 2.89414 133.461 2.67343C133.684 2.45035 133.791 2.1893 133.791 1.86892C133.791 1.53192 133.687 1.26138 133.471 1.0383C133.257 0.817591 132.999 0.70842 132.683 0.70842ZM132.671 3.20503C132.308 3.20503 131.995 3.0745 131.736 2.81345C131.478 2.55477 131.347 2.23676 131.347 1.86654C131.347 1.49632 131.473 1.15221 131.722 0.89353C131.974 0.632478 132.296 0.501953 132.685 0.501953C133.075 0.501953 133.371 0.634851 133.623 0.89353C133.872 1.15221 134 1.47971 134 1.86654C134 2.25338 133.87 2.55477 133.608 2.81345C133.35 3.07213 133.034 3.20503 132.674 3.20503M131.962 17.5795H133.509V5.4477H130.984V5.57823H131.962V17.5795ZM133.713 17.7836H131.758V5.78233H130.78V5.24361H133.715V17.786L133.713 17.7836Z" fill="white"/>
</svg>
